<?xml version="1.0" encoding="UTF-8"?>
<svg id="Layer_1" data-name="Layer 1" xmlns="http://www.w3.org/2000/svg" viewBox="0 0 1012.75 118.35">
  <defs>
    <style>
      .cls-1 {
        fill: lime;
      }

      .cls-2 {
        fill: red;
      }
    </style>
  </defs>
  <rect class="cls-1" y="0" width="118.35" height="118.35" rx="20.36" ry="20.36"/>
  <path class="cls-2" d="M62.38,41.98h-6.4c-2.96,0-5.2,2.32-5.2,5.2v24.72c0,2.88,2.32,5.2,5.2,5.2h6.4c2.88,0,5.2-2.32,5.2-5.2v-4.4h10.4v4.4c0,8.64-6.96,15.68-15.6,15.68h-6.4c-8.56,0-15.6-7.12-15.6-15.68v-24.72c0-8.64,7.04-15.6,15.6-15.6h6.4c8.64,0,15.6,6.96,15.6,15.6v4.4h-10.4v-4.4c0-2.96-2.24-5.2-5.2-5.2Z"/>
  <rect class="cls-1" x="127.77" y="0" width="118.35" height="118.35" rx="20.36" ry="20.36"/>
  <path class="cls-2" d="M178.55,52.78h16.8v-21.2h10.4v56h-10.4v-24.4h-16.8v24.4h-10.4V31.58h10.4v21.2Z"/>
  <rect class="cls-1" x="255.54" y="0" width="118.35" height="118.35" rx="20.36" ry="20.36"/>
  <path class="cls-2" d="M295.92,47.18c0-8.64,7.04-15.6,15.6-15.6h6.4c8.64,0,15.6,6.96,15.6,15.6v24.72c0,8.64-6.96,15.68-15.6,15.68h-6.4c-8.56,0-15.6-7.12-15.6-15.68v-24.72ZM323.12,71.9v-24.72c0-2.96-2.24-5.2-5.2-5.2h-6.4c-2.96,0-5.2,2.32-5.2,5.2v24.72c0,2.88,2.32,5.2,5.2,5.2h6.4c2.88,0,5.2-2.32,5.2-5.2Z"/>
  <rect class="cls-1" x="383.31" y="0" width="118.35" height="118.35" rx="20.36" ry="20.36"/>
  <path class="cls-2" d="M445.69,67.58h-11.6v20h-10.4V31.58h22c8.64,0,15.6,6.96,15.6,15.6v4.8c0,8.64-6.96,15.6-15.6,15.6ZM445.69,57.18c2.96,0,5.2-2.24,5.2-5.2v-4.8c0-2.96-2.24-5.2-5.2-5.2h-11.6v15.2h11.6Z"/>
  <rect class="cls-2" x="511.08" width="118.35" height="118.35" rx="20.36" ry="20.36"/>
  <path class="cls-1" d="M589.06,31.58v10.4h-13.6v45.6h-10.4v-45.6h-13.6v-10.4h37.6Z"/>
  <rect class="cls-2" x="638.85" width="118.35" height="118.35" rx="20.36" ry="20.36"/>
  <path class="cls-1" d="M701.23,87.58h-6.4c-8.56,0-15.6-7.04-15.6-15.68V31.58h10.4v40.32c0,2.88,2.32,5.2,5.2,5.2h6.4c2.88,0,5.2-2.32,5.2-5.2V31.58h10.4v40.32c0,8.56-7.04,15.68-15.6,15.68Z"/>
  <rect class="cls-2" x="766.62" width="118.35" height="118.35" rx="20.36" ry="20.36"/>
  <path class="cls-1" d="M839.8,58.06c2.96,2.8,4.8,6.8,4.8,11.28v2.64c0,8.64-6.96,15.6-15.6,15.6h-22V31.58h20.4c8.64,0,15.6,6.96,15.6,15.6v1.36c0,3.6-1.2,6.88-3.2,9.52ZM827.4,53.74c2.96,0,5.2-2.24,5.2-5.2v-1.36c0-2.96-2.24-5.2-5.2-5.2h-10v11.76h10ZM829,77.18c2.96,0,5.2-2.24,5.2-5.2v-2.64c0-2.88-2.24-5.2-5.2-5.2h-11.6v13.04h11.6Z"/>
  <rect class="cls-2" x="894.39" width="118.35" height="118.35" rx="20.36" ry="20.36"/>
  <path class="cls-1" d="M972.37,41.98h-27.2v11.04h24v10.4h-24v13.76h27.2v10.4h-37.6V31.58h37.6v10.4Z"/>
</svg>